<svg width="63" height="63" viewBox="0 0 63 63" fill="none" xmlns="http://www.w3.org/2000/svg">
<path d="M31.0625 0C39.3008 0 47.2017 3.27265 53.027 9.098C58.8524 14.9233 62.125 22.8242 62.125 31.0625C62.125 39.3008 58.8524 47.2017 53.027 53.027C47.2017 58.8524 39.3008 62.125 31.0625 62.125C22.8242 62.125 14.9233 58.8524 9.098 53.027C3.27265 47.2017 0 39.3008 0 31.0625C0 22.8242 3.27265 14.9233 9.098 9.098C14.9233 3.27265 22.8242 0 31.0625 0ZM22.1875 22.1875C21.0106 22.1875 19.8819 22.655 19.0497 23.4872C18.2175 24.3194 17.75 25.4481 17.75 26.625C17.75 27.8019 18.2175 28.9306 19.0497 29.7628C19.8819 30.595 21.0106 31.0625 22.1875 31.0625H26.625V44.375H22.1875C21.0106 44.375 19.8819 44.8425 19.0497 45.6747C18.2175 46.5069 17.75 47.6356 17.75 48.8125C17.75 49.9894 18.2175 51.1181 19.0497 51.9503C19.8819 52.7825 21.0106 53.25 22.1875 53.25H39.9375C41.1144 53.25 42.2431 52.7825 43.0753 51.9503C43.9075 51.1181 44.375 49.9894 44.375 48.8125C44.375 47.6356 43.9075 46.5069 43.0753 45.6747C42.2431 44.8425 41.1144 44.375 39.9375 44.375H35.5V26.625C35.5 25.4481 35.0325 24.3194 34.2003 23.4872C33.3681 22.655 32.2394 22.1875 31.0625 22.1875H22.1875ZM31.0625 8.875C29.8856 8.875 28.7569 9.34252 27.9247 10.1747C27.0925 11.0069 26.625 12.1356 26.625 13.3125C26.625 14.4894 27.0925 15.6181 27.9247 16.4503C28.7569 17.2825 29.8856 17.75 31.0625 17.75C32.2394 17.75 33.3681 17.2825 34.2003 16.4503C35.0325 15.6181 35.5 14.4894 35.5 13.3125C35.5 12.1356 35.0325 11.0069 34.2003 10.1747C33.3681 9.34252 32.2394 8.875 31.0625 8.875Z" fill="black"/>
</svg>
